<?xml version="1.0" encoding="UTF-8" standalone="no"?>
<!DOCTYPE svg PUBLIC "-//W3C//DTD SVG 1.1//EN"
 "http://www.w3.org/Graphics/SVG/1.1/DTD/svg11.dtd">
<!-- Generated by graphviz version 2.38.0 (20140413.2041)
 -->
<!-- Title: %3 Pages: 1 -->
<svg width="589pt" height="458pt"
 viewBox="0.00 0.00 588.50 458.00" xmlns="http://www.w3.org/2000/svg" xmlns:xlink="http://www.w3.org/1999/xlink">
<g id="graph0" class="graph" transform="scale(1 1) rotate(0) translate(4 454)">
<title>%3</title>
<polygon fill="white" stroke="none" points="-4,4 -4,-454 584.5,-454 584.5,4 -4,4"/>
<!-- bon -->
<g id="node1" class="node"><title>bon</title>
<ellipse fill="none" stroke="black" cx="113.5" cy="-432" rx="27" ry="18"/>
<text text-anchor="middle" x="113.5" y="-429.5" font-family="Bitstream Vera Sans" font-size="10.00">bon</text>
</g>
<!-- alors -->
<g id="node2" class="node"><title>alors</title>
<path fill="none" stroke="blue" d="M262.5,-450C262.5,-450 170.5,-450 170.5,-450 164.5,-450 158.5,-444 158.5,-438 158.5,-438 158.5,-426 158.5,-426 158.5,-420 164.5,-414 170.5,-414 170.5,-414 262.5,-414 262.5,-414 268.5,-414 274.5,-420 274.5,-426 274.5,-426 274.5,-438 274.5,-438 274.5,-444 268.5,-450 262.5,-450"/>
<text text-anchor="middle" x="216.5" y="-429.5" font-family="Bitstream Vera Sans" font-size="10.00">quel type de logiciel?</text>
</g>
<!-- canAGPL -->
<g id="node3" class="node"><title>canAGPL</title>
<path fill="none" stroke="blue" d="M229,-367C229,-367 12,-367 12,-367 6,-367 0,-361 0,-355 0,-355 0,-343 0,-343 0,-337 6,-331 12,-331 12,-331 229,-331 229,-331 235,-331 241,-337 241,-343 241,-343 241,-355 241,-355 241,-361 235,-367 229,-367"/>
<text text-anchor="middle" x="120.5" y="-346.5" font-family="Bitstream Vera Sans" font-size="10.00">existe&#45;t&#39;il une raison pour ne pas utiliser AGPL?</text>
</g>
<!-- alors&#45;&gt;canAGPL -->
<g id="edge1" class="edge"><title>alors&#45;&gt;canAGPL</title>
<path fill="none" stroke="black" d="M196.141,-413.822C182.395,-402.224 164.061,-386.755 148.886,-373.951"/>
<polygon fill="black" stroke="black" points="150.73,-370.927 140.83,-367.153 146.216,-376.277 150.73,-370.927"/>
<text text-anchor="middle" x="211" y="-388" font-family="Bitstream Vera Sans" font-size="10.00">service en ligne</text>
</g>
<!-- canGPL -->
<g id="node4" class="node"><title>canGPL</title>
<path fill="none" stroke="blue" d="M382.5,-284C382.5,-284 172.5,-284 172.5,-284 166.5,-284 160.5,-278 160.5,-272 160.5,-272 160.5,-260 160.5,-260 160.5,-254 166.5,-248 172.5,-248 172.5,-248 382.5,-248 382.5,-248 388.5,-248 394.5,-254 394.5,-260 394.5,-260 394.5,-272 394.5,-272 394.5,-278 388.5,-284 382.5,-284"/>
<text text-anchor="middle" x="277.5" y="-263.5" font-family="Bitstream Vera Sans" font-size="10.00">existe&#45;t&#39;il une raison pour ne pas utiliser GPL?</text>
</g>
<!-- alors&#45;&gt;canGPL -->
<g id="edge2" class="edge"><title>alors&#45;&gt;canGPL</title>
<path fill="none" stroke="black" d="M238.326,-413.921C243.704,-408.709 248.936,-402.595 252.5,-396 269.83,-363.931 275.266,-321.638 276.904,-294.377"/>
<polygon fill="black" stroke="black" points="280.401,-294.529 277.375,-284.375 273.409,-294.2 280.401,-294.529"/>
<text text-anchor="middle" x="285.5" y="-346.5" font-family="Bitstream Vera Sans" font-size="10.00">autre</text>
</g>
<!-- canAGPL&#45;&gt;canGPL -->
<g id="edge4" class="edge"><title>canAGPL&#45;&gt;canGPL</title>
<path fill="none" stroke="black" d="M153.796,-330.822C177.605,-318.538 209.831,-301.912 235.422,-288.709"/>
<polygon fill="black" stroke="black" points="237.24,-291.71 244.522,-284.014 234.03,-285.489 237.24,-291.71"/>
<text text-anchor="middle" x="217" y="-305" font-family="Bitstream Vera Sans" font-size="10.00">non</text>
</g>
<!-- goAGPL -->
<g id="node5" class="node"><title>goAGPL</title>
<polygon fill="none" stroke="black" points="142.5,-284 54.5,-284 54.5,-248 142.5,-248 142.5,-284"/>
<text text-anchor="middle" x="98.5" y="-263.5" font-family="Bitstream Vera Sans" font-size="10.00">utiliser AGPLv3</text>
</g>
<!-- canAGPL&#45;&gt;goAGPL -->
<g id="edge3" class="edge"><title>canAGPL&#45;&gt;goAGPL</title>
<path fill="none" stroke="black" d="M115.834,-330.822C112.918,-320.083 109.099,-306.025 105.789,-293.837"/>
<polygon fill="black" stroke="black" points="109.158,-292.886 103.159,-284.153 102.402,-294.721 109.158,-292.886"/>
<text text-anchor="middle" x="118" y="-305" font-family="Bitstream Vera Sans" font-size="10.00">oui</text>
</g>
<!-- goGPL -->
<g id="node6" class="node"><title>goGPL</title>
<polygon fill="none" stroke="black" points="198,-118.5 117,-118.5 117,-82.5 198,-82.5 198,-118.5"/>
<text text-anchor="middle" x="157.5" y="-98" font-family="Bitstream Vera Sans" font-size="10.00">utiliser GPLv3</text>
</g>
<!-- canGPL&#45;&gt;goGPL -->
<g id="edge5" class="edge"><title>canGPL&#45;&gt;goGPL</title>
<path fill="none" stroke="black" d="M254.686,-247.767C239.927,-235.803 221.015,-218.856 207.5,-201 190.377,-178.377 176.454,-148.993 167.69,-128.034"/>
<polygon fill="black" stroke="black" points="170.932,-126.714 163.922,-118.77 164.448,-129.352 170.932,-126.714"/>
<text text-anchor="middle" x="241" y="-222" font-family="Bitstream Vera Sans" font-size="10.00">oui</text>
</g>
<!-- panic -->
<g id="node7" class="node"><title>panic</title>
<image xlink:href="DenseZestyEyelashpitviper-size_restricted.gif" width="364px" height="201px" preserveAspectRatio="xMinYMin meet" x="216.5" y="-201"/>
</g>
<!-- canGPL&#45;&gt;panic -->
<g id="edge6" class="edge"><title>canGPL&#45;&gt;panic</title>
<path fill="none" stroke="black" d="M290.22,-247.812C297.593,-237.85 307.563,-224.377 318.485,-209.62"/>
<polygon fill="black" stroke="black" points="321.504,-211.424 324.639,-201.304 315.877,-207.26 321.504,-211.424"/>
<text text-anchor="middle" x="319" y="-222" font-family="Bitstream Vera Sans" font-size="10.00">non</text>
</g>
</g>
</svg>
